<svg width="191" height="45" viewBox="0 0 191 45" fill="none" xmlns="http://www.w3.org/2000/svg">
    <g clip-path="url(#p179fatp2a)">
        <path d="M40.153 16.43s-.008.024-.016.04c-.32.764-1.355 1.235-2.044 1.624 0 0-3.226 1.811-6.673 3.736-3.94 2.21-8.159 4.564-8.159 4.572a5.028 5.028 0 0 1-.977.43c-1.92.399-2.298-1.242-2.298-2.16V21.49l-.476-.065a20.128 20.128 0 0 1-1.83-.333c-1.946-.439-3.842-1.12-5.664-1.908-3.201-1.381-6.066-3.655-6.673-7.31a8.032 8.032 0 0 1-.099-.966v-.09a6.347 6.347 0 0 1 .066-1.055 8.508 8.508 0 0 1 .173-.788C5.752 8 6.32 6.7 7.534 5.41l.065-.065c.148-.154.304-.309.468-.455l.263-.235c.106-.09.221-.187.336-.276.156-.122.304-.228.46-.342.123-.089.254-.178.386-.268 4.021-2.663 8.996-2.68 8.996-2.68l-.665.203c-.28.082-.55.171-.805.268-.131.057-.27.122-.418.195-2.175.926-4.728 2.542-5.303 4.995-.287 1.218-.016 2.534.944 3.395.887.787 2.15 1.193 3.407 1.502.697.17 1.387.276 2.002.333 1.314.138 2.307.09 2.307.09v-1.901c0-.666.008-1.015 0-1.673V6.928c0-.918.377-2.559 2.298-2.153.123.033.255.082.427.155.156.065.336.154.558.276 0 0 1.157.65 2.815 1.575l12.944 7.626c.608.423 1.273.934 1.182 1.763 0 .08-.024.17-.049.251v.009zm1.568 11.402c2.799-1.966 6.09-5.32 6.59-10.396.025-.381.058-.763.066-1.153.041-2.988-.55-6.001-2.175-8.551a16.69 16.69 0 0 0-2.306-2.883c-1.305-1.292-2.733-2.29-4.301-3.013l-.05-.025c-.106-.049-.22-.09-.328-.138C37.026.772 34.54.512 32.922.455H23.22c-.14 0-.27.008-.41.016H20.2C13.837-.836 9.29.74 6.442 2.485c-.18.114-.361.228-.534.35-.049.032-.098.064-.14.089-.467.325-.902.658-1.296.99-.28.244-.558.504-.83.772l-.237.236c-.164.17-.328.349-.476.52-.271.308-.517.633-.755.958A12.63 12.63 0 0 0 1.042 8.25 11.805 11.805 0 0 0 .041 14.1c.016.178.04.349.065.52.058.47.14.95.263 1.445a12.273 12.273 0 0 0 1.362 3.297c1.15 2.023 2.791 3.663 4.695 5.044a23.745 23.745 0 0 0 2.717 1.778c.723.406 1.199.625 1.199.625v17.949h9.816v-13.23h1.921s.558.008 1.47 0h3.258l9.66 13.23h11.755L37.624 29.976a19.43 19.43 0 0 0 3.472-1.722c.222-.13.41-.284.624-.422zM48.772 29.505c0-9.616 6.935-15.536 14.183-15.536 8.618 0 12.813 6.188 12.813 14.293 0 1.608-.214 3.273-.419 3.947h-17.54c.837 4.053 3.677 5.717 7.46 5.717 2.151 0 4.154-.625 6.304-1.867l3.103 5.563C71.573 43.806 67.478 45 63.964 45c-8.56 0-15.184-5.717-15.184-15.487l-.008-.008zm19.067-3.33c0-2.964-1.314-5.149-4.728-5.149-2.578 0-4.835 1.608-5.467 5.149H67.84z" fill="#55A635"/>
        <path d="M111.472 16.812c0 2.404-.394 4.402-1.19 6.002-.796 1.6-1.863 2.875-3.218 3.833-1.354.959-2.93 1.633-4.736 2.03-1.806.398-3.702.601-5.696.601h-5.557v15.285h-9.382V4.387h14.75c2.052 0 3.989.195 5.811.576 1.823.382 3.415 1.056 4.786 2.006 1.37.959 2.454 2.234 3.242 3.833.796 1.6 1.19 3.606 1.19 6.002v.008zm-9.431 0c0-.982-.148-1.795-.443-2.428-.296-.633-.69-1.129-1.19-1.502a4.347 4.347 0 0 0-1.658-.764 8.508 8.508 0 0 0-1.888-.211h-5.787v9.697h5.787c.624 0 1.247-.065 1.863-.187a4.259 4.259 0 0 0 1.683-.715c.5-.357.894-.836 1.19-1.453.295-.618.443-1.43.443-2.445v.008zM125.188 44.562h-9.292V2.867h9.292v41.695zM159.26 44.53h-9.054v-1.016c-.87.43-1.92.78-3.151 1.056-1.232.276-2.578.414-4.039.414-1.962 0-3.693-.3-5.204-.901-1.51-.601-2.774-1.405-3.8-2.404a9.922 9.922 0 0 1-2.331-3.484 11.017 11.017 0 0 1-.796-4.158V14.318h9.053v17.68c0 .707.074 1.381.23 2.015.156.633.419 1.177.796 1.64a3.81 3.81 0 0 0 1.445 1.088c.591.26 1.305.39 2.15.39.846 0 1.552-.17 2.241-.512a6.025 6.025 0 0 0 2.988-3.354 6.697 6.697 0 0 0 .418-2.339V14.318h9.054V44.53zM190.999 34.914c0 1.721-.361 3.216-1.075 4.483-.714 1.259-1.715 2.298-3.012 3.118-1.289.812-2.84 1.422-4.646 1.828-1.806.397-3.8.6-5.975.6a18.33 18.33 0 0 1-4.876-.641 12.09 12.09 0 0 1-4.227-2.087c-1.248-.967-2.29-2.217-3.127-3.769-.838-1.55-1.355-3.46-1.543-5.741h9.332c.156 1.632.665 2.77 1.543 3.419.87.65 1.945.966 3.218.966.591 0 1.173-.032 1.748-.09a8.993 8.993 0 0 0 1.56-.3c.467-.138.845-.316 1.14-.528.296-.21.444-.495.444-.836 0-.617-.608-1.12-1.823-1.502-1.214-.382-3.11-.87-5.696-1.454a58.352 58.352 0 0 1-3.849-1.137c-1.264-.414-2.373-.95-3.341-1.6a7.778 7.778 0 0 1-2.331-2.404c-.591-.958-.887-2.128-.887-3.516 0-1.787.386-3.306 1.166-4.556a9.256 9.256 0 0 1 3.053-3.03c1.264-.771 2.684-1.332 4.268-1.689a21.622 21.622 0 0 1 4.761-.536c1.584 0 3.029.17 4.506.512 1.478.34 2.824.942 4.039 1.803 1.214.86 2.24 2.022 3.078 3.484.837 1.462 1.387 3.321 1.633 5.563h-9.332c-.124-1.389-.567-2.315-1.33-2.794-.764-.48-1.675-.715-2.733-.715-1.059 0-1.987.155-2.684.463-.698.309-1.051.723-1.051 1.251 0 .365.443.682 1.33.95.886.26 2.216.593 3.989.991 1.428.309 2.897.658 4.391 1.04 1.494.381 2.856.917 4.088 1.591a9.1 9.1 0 0 1 3.037 2.656c.796 1.096 1.19 2.501 1.19 4.223l.024-.016z" fill="#1B92CB"/>
    </g>
    <defs>
        <clipPath id="p179fatp2a">
            <path fill="#fff" d="M0 0h191v45H0z"/>
        </clipPath>
    </defs>
</svg>
